<svg xmlns="http://www.w3.org/2000/svg" viewBox="-4700 12439.569 205.393 39.053">
  <defs>
    <style>
      .cls-1, .cls-2 {
        fill: #29c76e;
        fill-rule: evenodd;
      }

      .cls-1 {
        stroke: #29c76e;
        stroke-width: 0.1px;
      }
    </style>
  </defs>
  <g id="Group_11" data-name="Group 11" transform="translate(-4793.16 12419.008)">
    <path id="path11" class="cls-1" d="M1658.185,1879a8.229,8.229,0,0,1,8.254,8.253v6.937c0,.416-.624.832-1.526.832-.832,0-1.318-.416-1.318-.832v-1.734a7.018,7.018,0,0,1-5.618,3.052,8.041,8.041,0,0,1-7.976-8.254A8.215,8.215,0,0,1,1658.185,1879Zm75.047,16.022a2,2,0,0,0,1.734-.832l1.734-10.4v-1.526c.208,0,.208,0,.208.208l.208.9,4.578,10.82a1.735,1.735,0,0,0,1.734.832,1.393,1.393,0,0,0,1.457-.832l4.578-10.82.208-.9c0-.208,0-.208.208-.208a.2.2,0,0,1,.208.208l-.208,1.318,1.734,10.4a2,2,0,0,0,1.734.832c1.11,0,1.526-.416,1.318-.832l-2.567-13.456c-.277-.832-.694-1.318-2.011-1.318a2.24,2.24,0,0,0-2.15,1.318l-4.3,9.78-.208,1.041v.277a.272.272,0,0,1-.277-.277l-.208-1.041-4.3-9.78a2.057,2.057,0,0,0-2.15-1.318c-1.318,0-1.734.486-2.012,1.318l-2.566,13.456C1731.913,1894.606,1732.33,1895.022,1733.231,1895.022Zm-5.2-9.294h-10.612a5.127,5.127,0,0,1,5.2-4.092A5.307,5.307,0,0,1,1728.03,1885.728Zm1.526,2.636c.833,0,1.249-.694,1.249-1.526a8,8,0,0,0-8.184-7.837,8.256,8.256,0,0,0,0,16.508c3.468,0,6.243-1.526,7.561-3.954.208-.625,0-1.249-1.11-1.249a2.482,2.482,0,0,0-1.942.832,5.956,5.956,0,0,1-9.988-2.774Zm-19.975,4.3h-8.254c2.428-2.15,3.052-6.312,3.26-10.82h4.994Zm-10.82,6.311a1.1,1.1,0,0,0,1.248-1.109v-2.844h11.1v2.844a1.055,1.055,0,0,0,1.11,1.109,1.1,1.1,0,0,0,1.248-1.109v-3.884c0-.9-.416-1.318-1.248-1.318v-11.93a1.2,1.2,0,0,0-1.318-1.318h-7.144a1.6,1.6,0,0,0-1.734,1.734c0,4.994-.694,8.67-3.26,11.1-.9.625-1.318,1.041-1.318,2.151v3.468C1697.442,1898.49,1697.858,1898.975,1698.76,1898.975Zm60.481-17.132v12.346c0,.416-.485.832-1.318.832-.9,0-1.526-.416-1.526-.832v-13.456c0-.832.624-1.318,1.526-1.318h10.4a1.2,1.2,0,0,1,1.318,1.318v13.456c0,.416-.485.832-1.318.832-.9,0-1.318-.416-1.318-.832v-12.346Zm33.778,10.82v9.987c0,.416-.417.833-1.249.833-.9,0-1.318-.417-1.318-.833v-15.4a8.227,8.227,0,0,1,8.254-8.253,8.041,8.041,0,0,1,7.977,8.253c0,4.578-3.052,8.254-7.977,8.254A7.247,7.247,0,0,1,1793.02,1892.664Zm5.687-11.028a5.61,5.61,0,0,0-5.687,5.618,5.3,5.3,0,0,0,5.41,5.618c3.745,0,5.479-2.566,5.479-5.618S1801.9,1881.635,1798.707,1881.635Zm10.82,13.386c.832,0,1.318-.416,1.318-.832v-13.872c0-.416-.486-.9-1.318-.9-.9,0-1.318.486-1.318.9v13.872C1808.209,1894.606,1808.625,1895.022,1809.527,1895.022Zm4.786-8.392,4.925-5.48c.485-.416.485-1.04-.416-1.526-.624-.624-1.318-.624-1.526-.208l-6.034,7.214,6.936,8.392c.416.486.833.486,1.734-.208.624-.416.833-1.041.416-1.526Zm-144.823,8.392c.833,0,1.318-.416,1.318-.832v-13.872c0-.416-.485-.9-1.318-.9-.9,0-1.318.486-1.318.9v13.872C1668.172,1894.606,1668.589,1895.022,1669.49,1895.022Zm4.994-8.392,4.717-5.48c.485-.416.485-1.04-.208-1.526a1.183,1.183,0,0,0-1.734-.208l-6.034,7.214,6.936,8.392c.416.486,1.04.486,1.734-.208.624-.416.832-1.041.416-1.526Zm105.774-7.63a8.273,8.273,0,0,1,8.254,8.253v6.937c0,.416-.485.832-1.526.832-.9,0-1.318-.416-1.318-.832v-1.734a7.121,7.121,0,0,1-5.618,3.052,8.055,8.055,0,0,1-8.046-8.254A8.229,8.229,0,0,1,1780.257,1879Zm0,2.635a5.62,5.62,0,0,1-.208,11.236c-3.26,0-5.2-2.566-5.2-5.618A5.379,5.379,0,0,1,1780.257,1881.635ZM1688.564,1879a8.174,8.174,0,0,1,7.976,8.253v6.937c0,.416-.416.832-1.249.832-.9,0-1.318-.416-1.318-.832v-1.734a7.122,7.122,0,0,1-5.618,3.052,7.929,7.929,0,0,1-8.046-8.254A8.229,8.229,0,0,1,1688.564,1879Zm0,2.635a5.62,5.62,0,0,1-.208,11.236c-3.468,0-5.41-2.566-5.41-5.618A5.551,5.551,0,0,1,1688.564,1881.635Zm-30.379,0a5.62,5.62,0,0,1-.208,11.236c-3.26,0-5.2-2.566-5.2-5.618A5.378,5.378,0,0,1,1658.185,1881.635Z" transform="translate(-1522.064 -1843.92)"/>
    <path id="path13" class="cls-2" d="M752.217,1422.211v3.4a1.859,1.859,0,0,0,1.859,1.814,1.819,1.819,0,0,0,1.814-1.814v-11.791a13.63,13.63,0,0,0-7.211-12.154c-1.723-.726-3.129-.182-3.4.68a2.343,2.343,0,0,0,1.27,2.54,10.227,10.227,0,0,1,5.533,8.934,10.136,10.136,0,1,1-14.875-8.934,2.4,2.4,0,0,0,1.27-2.54c-.272-.862-1.723-1.406-3.4-.68-4.263,2.086-7.075,6.938-7.075,12.154a13.547,13.547,0,0,0,13.741,13.923A12.964,12.964,0,0,0,752.217,1422.211ZM741.877,1395a1.859,1.859,0,0,0-1.859,1.814v13.061a1.93,1.93,0,0,0,1.859,2,1.813,1.813,0,0,0,1.814-2v-13.061A1.737,1.737,0,0,0,741.877,1395Z" transform="translate(-634.84 -1374.439)"/>
  </g>
</svg>
